<svg xmlns="http://www.w3.org/2000/svg">
  <symbol viewBox="0 0 24 24" id="facebook" fill="none" xmlns="http://www.w3.org/2000/svg">
    <path fill-rule="evenodd" clip-rule="evenodd"
      d="M20 1C21.6569 1 23 2.34315 23 4V20C23 21.6569 21.6569 23 20 23H4C2.34315 23 1 21.6569 1 20V4C1 2.34315 2.34315 1 4 1H20ZM20 3C20.5523 3 21 3.44772 21 4V20C21 20.5523 20.5523 21 20 21H15V13.9999H17.0762C17.5066 13.9999 17.8887 13.7245 18.0249 13.3161L18.4679 11.9871C18.6298 11.5014 18.2683 10.9999 17.7564 10.9999H15V8.99992C15 8.49992 15.5 7.99992 16 7.99992H18C18.5523 7.99992 19 7.5522 19 6.99992V6.31393C19 5.99091 18.7937 5.7013 18.4813 5.61887C17.1705 5.27295 16 5.27295 16 5.27295C13.5 5.27295 12 6.99992 12 8.49992V10.9999H10C9.44772 10.9999 9 11.4476 9 11.9999V12.9999C9 13.5522 9.44771 13.9999 10 13.9999H12V21H4C3.44772 21 3 20.5523 3 20V4C3 3.44772 3.44772 3 4 3H20Z"
      fill="#0F0F0F" />
  </symbol>

  <symbol viewBox="0 0 24 24" id="telegram" fill="none">
    <path fill-rule="evenodd" clip-rule="evenodd"
      d="M21.997 12C21.997 17.5228 17.5198 22 11.997 22C6.47415 22 1.99699 17.5228 1.99699 12C1.99699 6.47715 6.47415 2 11.997 2C17.5198 2 21.997 6.47715 21.997 12ZM12.3553 9.38244C11.3827 9.787 9.43876 10.6243 6.52356 11.8944C6.05018 12.0827 5.8022 12.2669 5.77962 12.4469C5.74147 12.7513 6.12258 12.8711 6.64155 13.0343C6.71214 13.0565 6.78528 13.0795 6.86026 13.1038C7.37085 13.2698 8.05767 13.464 8.41472 13.4717C8.7386 13.4787 9.10009 13.3452 9.49918 13.0711C12.2229 11.2325 13.629 10.3032 13.7172 10.2831C13.7795 10.269 13.8658 10.2512 13.9243 10.3032C13.9828 10.3552 13.977 10.4536 13.9708 10.48C13.9331 10.641 12.4371 12.0318 11.6629 12.7515C11.4216 12.9759 11.2504 13.135 11.2154 13.1714C11.137 13.2528 11.0571 13.3298 10.9803 13.4038C10.506 13.8611 10.1502 14.204 11 14.764C11.4083 15.0331 11.7351 15.2556 12.0611 15.4776C12.4171 15.7201 12.7722 15.9619 13.2317 16.2631C13.3487 16.3398 13.4605 16.4195 13.5694 16.4971C13.9837 16.7925 14.3559 17.0579 14.8158 17.0155C15.083 16.991 15.359 16.7397 15.4992 15.9903C15.8305 14.2193 16.4817 10.382 16.6322 8.80081C16.6454 8.66228 16.6288 8.48498 16.6154 8.40715C16.6021 8.32932 16.5743 8.21842 16.4731 8.13633C16.3533 8.03911 16.1683 8.01861 16.0856 8.02C15.7095 8.0267 15.1324 8.22735 12.3553 9.38244Z"
      stroke="#000000" stroke-linejoin="round" />
  </symbol>

  <symbol viewBox="0 0 24 24" id="instagram" fill="none">
    <path fill-rule="evenodd" clip-rule="evenodd"
      d="M12 18C15.3137 18 18 15.3137 18 12C18 8.68629 15.3137 6 12 6C8.68629 6 6 8.68629 6 12C6 15.3137 8.68629 18 12 18ZM12 16C14.2091 16 16 14.2091 16 12C16 9.79086 14.2091 8 12 8C9.79086 8 8 9.79086 8 12C8 14.2091 9.79086 16 12 16Z"
      fill="#0F0F0F" />
    <path
      d="M18 5C17.4477 5 17 5.44772 17 6C17 6.55228 17.4477 7 18 7C18.5523 7 19 6.55228 19 6C19 5.44772 18.5523 5 18 5Z"
      fill="#0F0F0F" />
    <path fill-rule="evenodd" clip-rule="evenodd"
      d="M1.65396 4.27606C1 5.55953 1 7.23969 1 10.6V13.4C1 16.7603 1 18.4405 1.65396 19.7239C2.2292 20.8529 3.14708 21.7708 4.27606 22.346C5.55953 23 7.23969 23 10.6 23H13.4C16.7603 23 18.4405 23 19.7239 22.346C20.8529 21.7708 21.7708 20.8529 22.346 19.7239C23 18.4405 23 16.7603 23 13.4V10.6C23 7.23969 23 5.55953 22.346 4.27606C21.7708 3.14708 20.8529 2.2292 19.7239 1.65396C18.4405 1 16.7603 1 13.4 1H10.6C7.23969 1 5.55953 1 4.27606 1.65396C3.14708 2.2292 2.2292 3.14708 1.65396 4.27606ZM13.4 3H10.6C8.88684 3 7.72225 3.00156 6.82208 3.0751C5.94524 3.14674 5.49684 3.27659 5.18404 3.43597C4.43139 3.81947 3.81947 4.43139 3.43597 5.18404C3.27659 5.49684 3.14674 5.94524 3.0751 6.82208C3.00156 7.72225 3 8.88684 3 10.6V13.4C3 15.1132 3.00156 16.2777 3.0751 17.1779C3.14674 18.0548 3.27659 18.5032 3.43597 18.816C3.81947 19.5686 4.43139 20.1805 5.18404 20.564C5.49684 20.7234 5.94524 20.8533 6.82208 20.9249C7.72225 20.9984 8.88684 21 10.6 21H13.4C15.1132 21 16.2777 20.9984 17.1779 20.9249C18.0548 20.8533 18.5032 20.7234 18.816 20.564C19.5686 20.1805 20.1805 19.5686 20.564 18.816C20.7234 18.5032 20.8533 18.0548 20.9249 17.1779C20.9984 16.2777 21 15.1132 21 13.4V10.6C21 8.88684 20.9984 7.72225 20.9249 6.82208C20.8533 5.94524 20.7234 5.49684 20.564 5.18404C20.1805 4.43139 19.5686 3.81947 18.816 3.43597C18.5032 3.27659 18.0548 3.14674 17.1779 3.0751C16.2777 3.00156 15.1132 3 13.4 3Z"
      fill="#0F0F0F" />
  </symbol>

  <symbol viewBox="0 0 24 24" id="linkedin" fill="none">
    <path
      d="M6.5 8C7.32843 8 8 7.32843 8 6.5C8 5.67157 7.32843 5 6.5 5C5.67157 5 5 5.67157 5 6.5C5 7.32843 5.67157 8 6.5 8Z"
      fill="#0F0F0F" />
    <path
      d="M5 10C5 9.44772 5.44772 9 6 9H7C7.55228 9 8 9.44771 8 10V18C8 18.5523 7.55228 19 7 19H6C5.44772 19 5 18.5523 5 18V10Z"
      fill="#0F0F0F" />
    <path
      d="M11 19H12C12.5523 19 13 18.5523 13 18V13.5C13 12 16 11 16 13V18.0004C16 18.5527 16.4477 19 17 19H18C18.5523 19 19 18.5523 19 18V12C19 10 17.5 9 15.5 9C13.5 9 13 10.5 13 10.5V10C13 9.44771 12.5523 9 12 9H11C10.4477 9 10 9.44772 10 10V18C10 18.5523 10.4477 19 11 19Z"
      fill="#0F0F0F" />
    <path fill-rule="evenodd" clip-rule="evenodd"
      d="M20 1C21.6569 1 23 2.34315 23 4V20C23 21.6569 21.6569 23 20 23H4C2.34315 23 1 21.6569 1 20V4C1 2.34315 2.34315 1 4 1H20ZM20 3C20.5523 3 21 3.44772 21 4V20C21 20.5523 20.5523 21 20 21H4C3.44772 21 3 20.5523 3 20V4C3 3.44772 3.44772 3 4 3H20Z"
      fill="#0F0F0F" />
  </symbol>

  <symbol viewBox="0 0 24 24" fill="none" id="dizzy">
    <path d="M8 14C7.44771 14 7 14.4477 7 15C7 15.5523 7.44771 16 8 16H15.9991C16.5514 16 17 15.5523 17 15C17 14.4477 16.5523 14 16 14H8Z" fill="#0F0F0F"/>
    <path d="M10.7041 7.2924C10.3141 6.90253 9.68178 6.90253 9.29176 7.2924L8.49735 8.0865L7.70797 7.29743C7.31795 6.90756 6.68561 6.90756 6.29559 7.29743C5.90557 7.6873 5.90556 8.3194 6.29558 8.70926L7.08496 9.49833L6.29251 10.2905C5.9025 10.6803 5.90249 11.3124 6.29251 11.7023C6.68254 12.0922 7.31488 12.0922 7.7049 11.7023L8.49735 10.9102L9.2951 11.7076C9.68512 12.0975 10.3175 12.0975 10.7075 11.7076C11.0975 11.3177 11.0975 10.6856 10.7075 10.2958L9.90974 9.49833L10.7041 8.70424C11.0942 8.31437 11.0942 7.68227 10.7041 7.2924Z" fill="#0F0F0F"/>
    <path d="M16.2918 7.2924C16.6818 6.90253 17.3141 6.90253 17.7041 7.2924C18.0942 7.68227 18.0942 8.31437 17.7041 8.70424L16.9097 9.49833L17.7075 10.2958C18.0975 10.6856 18.0975 11.3177 17.7075 11.7076C17.3175 12.0975 16.6851 12.0975 16.2951 11.7076L15.4974 10.9102L14.7049 11.7023C14.3149 12.0922 13.6825 12.0922 13.2925 11.7023C12.9025 11.3124 12.9025 10.6803 13.2925 10.2905L14.085 9.49833L13.2956 8.70926C12.9056 8.3194 12.9056 7.6873 13.2956 7.29743C13.6856 6.90756 14.318 6.90756 14.708 7.29743L15.4974 8.0865L16.2918 7.2924Z" fill="#0F0F0F"/>
    <path fill-rule="evenodd" clip-rule="evenodd" d="M12 23C18.0751 23 23 18.0751 23 12C23 5.92487 18.0751 1 12 1C5.92487 1 1 5.92487 1 12C1 18.0751 5.92487 23 12 23ZM12 20.9932C7.03321 20.9932 3.00683 16.9668 3.00683 12C3.00683 7.03321 7.03321 3.00683 12 3.00683C16.9668 3.00683 20.9932 7.03321 20.9932 12C20.9932 16.9668 16.9668 20.9932 12 20.9932Z" fill="#0F0F0F"/>
  </symbol>

  <symbol viewBox="0 0 24 24" id="funny" fill="none">
    <path
      d="M8.9126 15.9336C10.1709 16.249 11.5985 16.2492 13.0351 15.8642C14.4717 15.4793 15.7079 14.7653 16.64 13.863"
      stroke="#1C274C" stroke-width="1.5" stroke-linecap="round" />
    <ellipse cx="14.5094" cy="9.77405" rx="1" ry="1.5" transform="rotate(-15 14.5094 9.77405)"
      fill="#1C274C" />
    <ellipse cx="8.71402" cy="11.3278" rx="1" ry="1.5" transform="rotate(-15 8.71402 11.3278)"
      fill="#1C274C" />
    <path
      d="M13 16.0004L13.478 16.9742C13.8393 17.7104 14.7249 18.0198 15.4661 17.6689C16.2223 17.311 16.5394 16.4035 16.1708 15.6524L15.7115 14.7168"
      stroke="#1C274C" stroke-width="1.5" />
    <path
      d="M4.92847 4.92663C6.12901 3.72408 7.65248 2.81172 9.41185 2.34029C14.7465 0.910876 20.2299 4.0767 21.6593 9.41136C23.0887 14.746 19.9229 20.2294 14.5882 21.6588C9.25357 23.0882 3.7702 19.9224 2.34078 14.5877C1.86936 12.8284 1.89775 11.0528 2.33892 9.41186"
      stroke="#1C274C" stroke-width="1.5" stroke-linecap="round" />
  </symbol>
</svg>